<mxfile host="65bd71144e">
    <diagram id="gpQdNYk3hE0uf7x-Eoq6" name="Page-2">
        <mxGraphModel dx="1439" dy="755" grid="1" gridSize="10" guides="1" tooltips="1" connect="1" arrows="1" fold="1" page="1" pageScale="1" pageWidth="850" pageHeight="1100" math="0" shadow="0">
            <root>
                <mxCell id="0"/>
                <mxCell id="1" parent="0"/>
                <mxCell id="XAzNt7OTX3E86FBCh_TN-3" style="edgeStyle=none;html=1;entryX=0.5;entryY=0;entryDx=0;entryDy=0;" edge="1" parent="1" source="XAzNt7OTX3E86FBCh_TN-1" target="XAzNt7OTX3E86FBCh_TN-2">
                    <mxGeometry relative="1" as="geometry"/>
                </mxCell>
                <mxCell id="XAzNt7OTX3E86FBCh_TN-7" style="edgeStyle=none;html=1;entryX=0;entryY=0.5;entryDx=0;entryDy=0;" edge="1" parent="1" source="XAzNt7OTX3E86FBCh_TN-1" target="XAzNt7OTX3E86FBCh_TN-6">
                    <mxGeometry relative="1" as="geometry"/>
                </mxCell>
                <mxCell id="XAzNt7OTX3E86FBCh_TN-1" value="OTX Connector" style="rounded=0;whiteSpace=wrap;html=1;" vertex="1" parent="1">
                    <mxGeometry x="90" y="405" width="120" height="60" as="geometry"/>
                </mxCell>
                <mxCell id="XAzNt7OTX3E86FBCh_TN-2" value="CobaltStrike OTX" style="rounded=1;whiteSpace=wrap;html=1;" vertex="1" parent="1">
                    <mxGeometry x="90" y="550" width="120" height="60" as="geometry"/>
                </mxCell>
                <mxCell id="XAzNt7OTX3E86FBCh_TN-4" value="OpenCTI" style="swimlane;" vertex="1" parent="1">
                    <mxGeometry x="350" y="150" width="350" height="380" as="geometry"/>
                </mxCell>
                <mxCell id="XAzNt7OTX3E86FBCh_TN-5" value="CobaltStrike" style="rounded=1;whiteSpace=wrap;html=1;" vertex="1" parent="XAzNt7OTX3E86FBCh_TN-4">
                    <mxGeometry x="210" y="65" width="120" height="60" as="geometry"/>
                </mxCell>
                <mxCell id="XAzNt7OTX3E86FBCh_TN-8" style="edgeStyle=none;html=1;entryX=0.608;entryY=1;entryDx=0;entryDy=0;entryPerimeter=0;" edge="1" parent="XAzNt7OTX3E86FBCh_TN-4" source="XAzNt7OTX3E86FBCh_TN-6" target="XAzNt7OTX3E86FBCh_TN-5">
                    <mxGeometry relative="1" as="geometry"/>
                </mxCell>
                <mxCell id="XAzNt7OTX3E86FBCh_TN-6" value="Report" style="rounded=1;whiteSpace=wrap;html=1;" vertex="1" parent="XAzNt7OTX3E86FBCh_TN-4">
                    <mxGeometry x="130" y="255" width="120" height="60" as="geometry"/>
                </mxCell>
                <mxCell id="XAzNt7OTX3E86FBCh_TN-11" style="edgeStyle=none;html=1;entryX=0.25;entryY=0;entryDx=0;entryDy=0;" edge="1" parent="XAzNt7OTX3E86FBCh_TN-4" source="XAzNt7OTX3E86FBCh_TN-9" target="XAzNt7OTX3E86FBCh_TN-6">
                    <mxGeometry relative="1" as="geometry"/>
                </mxCell>
                <mxCell id="XAzNt7OTX3E86FBCh_TN-12" style="edgeStyle=none;html=1;entryX=0;entryY=0.5;entryDx=0;entryDy=0;" edge="1" parent="XAzNt7OTX3E86FBCh_TN-4" source="XAzNt7OTX3E86FBCh_TN-9" target="XAzNt7OTX3E86FBCh_TN-5">
                    <mxGeometry relative="1" as="geometry"/>
                </mxCell>
                <mxCell id="XAzNt7OTX3E86FBCh_TN-9" value="Grouping" style="rounded=1;whiteSpace=wrap;html=1;" vertex="1" parent="XAzNt7OTX3E86FBCh_TN-4">
                    <mxGeometry x="20" y="65" width="120" height="60" as="geometry"/>
                </mxCell>
            </root>
        </mxGraphModel>
    </diagram>
    <diagram id="_-r9IejcSnWed96PJSQi" name="Page-1">
        <mxGraphModel dx="1439" dy="755" grid="1" gridSize="10" guides="1" tooltips="1" connect="1" arrows="1" fold="1" page="1" pageScale="1" pageWidth="850" pageHeight="1100" math="0" shadow="0">
            <root>
                <mxCell id="0"/>
                <mxCell id="1" parent="0"/>
                <mxCell id="13" style="edgeStyle=none;html=1;" edge="1" parent="1" source="2" target="12">
                    <mxGeometry relative="1" as="geometry"/>
                </mxCell>
                <mxCell id="MVKK8W84-2XBFiwn59CM-14" style="edgeStyle=none;html=1;" edge="1" parent="1" source="2">
                    <mxGeometry relative="1" as="geometry">
                        <mxPoint x="650" y="135" as="targetPoint"/>
                    </mxGeometry>
                </mxCell>
                <mxCell id="2" value="Daily CI/CD&lt;br&gt;" style="dashed=0;outlineConnect=0;html=1;align=center;labelPosition=center;verticalLabelPosition=bottom;verticalAlign=top;shape=mxgraph.weblogos.github" vertex="1" parent="1">
                    <mxGeometry x="350" y="97.5" width="75" height="75" as="geometry"/>
                </mxCell>
                <mxCell id="4" value="1 Livehunt rule -Â vt.metadata.signatures" style="shape=image;verticalLabelPosition=bottom;labelBackgroundColor=default;verticalAlign=top;aspect=fixed;imageAspect=0;image=data:image/png,iVBORw0KGgoAAAANSUhEUgAAAH0AAAB9CAMAAAC4XpwXAAAAb1BMVEX///87Yf8fUf8nVf/L0v+tuf/i5/82Xv8wWv9/lf+CmP/5+v9Vdf8rV/8zXP+Ro/+InP8XTf/CzP+YqP/O1v+1wf+ntf+OoP+drP9Mbf/w8v/T2v+6xf+jsv9BZv/n6/9gfP/c4f9th/92jf9pgv8qiOaJAAADNklEQVRoge3b3XaaQBQF4CMoYAxEUKwKYkj6/s9Yu2xT9rgIc36Ai3qu1W+dmS2DzEj0rGf9b7VfzlSb33oR5MEsFd2bb+LFHBX9GftgTp2iYI7uo6/kLWbgI5qT/6fTcnq+o9Ny8uh19emjBzoVD4Of2FevTssY+eZlbV5Nr+7y2dF3rfCuzWvcq1ORQ/Pp26Q6tTl0n1vz3+tU4OCnu0l1KrIx+SH91v1iPH5Qp3rE6A3rtEfeMnoeOtXO3NvxPvoDbzb3XvqNH2fu/XQqx4mep07LUaLnq1M5RvS8dSoT++j567fuzeeeoT9E78ekurve52qepdMqsY0eT6cyhe5DZfSY+q175HXdc3VaWUaPrZtGj6/TAQdfEz2BTiuz6El0N3ry7kU6HZzobSfV3VvNQMgLdbqYDL5Up0NowIt1OqR6Xq7TRR89he6u94LoaXQ6agdfpdNFyev0B5655Ch1Oqqip9Xd9Z4XPbVOO8Xg63U6yq96BvrDF8+/ewuddtLomejueu8dPRuddvgbz/dmy0gv4TdO3FRT6gXsJcSZ7yeZ6AV857Ks9X2jhV5C59np6v1OA71OEGd8jF7HJyosXK87gVucOW/W6k7gGv85N9Br6Dx5ZXWu1TFwySuvc6VeY+DYuErH3dKsYQ67Tl9C4JITH1foTuDeN3xcruNuUfIu6Fyu406ZEJfq+wDTLhl2sb6H+8hUist0vLanH1JcpOPmrAKX6IiHn3JcoO9DSPtPuS3QK1hYwg8Nztbx2h6uVThXx4Mo4Vox53wdjyAFWyXO0ysM3KfS5ukVXNsD5ZwzdfyqKXdkuDrOeajfCuToeOQusDkA4Ku3KQROuh0g01u4tuu3QFl6BbfOodlxLy8dj9ja4V561XSfygQXM9xHdwJnedRpWHcCN+05qwo6D1eW+KBeYeAOpviQ3kLg8tIWH9CvWRfPjDsf0K9wbc/N8W/1Fo8XFeY4Ub/enuDR72n7Yl+9p3kjxEc5yNx7kvkaO/jY1dWvk/93o6NH8dR4R2/dOZ9Sj07J8KvH0s9z/GXkr36eYdi/9GgxC37X2yYI56j7v7Tqw2qekj3xe9azniWuX/I7SWFReMJ+AAAAAElFTkSuQmCC;" vertex="1" parent="1">
                    <mxGeometry x="123" y="310" width="80" height="80" as="geometry"/>
                </mxCell>
                <mxCell id="6" value="CDP" style="swimlane;" vertex="1" parent="1">
                    <mxGeometry x="10" y="47.5" width="200" height="200" as="geometry"/>
                </mxCell>
                <mxCell id="10" style="edgeStyle=none;html=1;" edge="1" parent="6" source="7" target="9">
                    <mxGeometry relative="1" as="geometry"/>
                </mxCell>
                <mxCell id="7" value="" style="shape=image;verticalLabelPosition=bottom;labelBackgroundColor=default;verticalAlign=top;aspect=fixed;imageAspect=0;image=data:image/png,iVBORw0KGgoAAAANSUhEUgAAALUAAAEWCAMAAAAXciZvAAAA5FBMVEX///9Qe8gAvNQAutNMecdFdMV9nda7y+n3+f3u+/yKpdll1uSrv+Ru2OUAvdRResif5O7v8/r4/f5Vf8r09/zm+Pvy/P3m7Pfq+vxTfsmhuOHk6/fF0+xchczW4PJDzt9ojdBwk9LB7vTT9PhrkNGK3+uSrNzc9vnN2e/Z4vOdtOCu6fGEodcmx9vC0Ou1x+eV4uzI7/VIgsk7jcsqm84Xq9FDhco8ls5x0eMOsdJqx+A6ptI/x9up4+1XmNFSiMu31ezC4/EAn82U1umIuN+myOZTo9RJs9gfpdCGxeIXrdFtsdsl1aFBAAAYeUlEQVR4nO1daXviSJJGSAKMQAJhwFwWl7hloF2uKs9QM7PVu7O1Pf///2ympMyMPADJRtj1PMSX7hIgvwoiI944MsnlbnKTm9zkJje5yU1ucpOb3OQmN7nJTW5yk5vc5CY3uclNfjtxF8XPJIsSQ7auqWXs5kob8zPJqM1Qe7parLtcqWxon0eMAkOd2+l5lXxG1HWGeq4E/RlRb+4Z6ubhd0Sd+640kc+H2uRQ+78L6nIJoJ7YvyNqN/g9UBsc6pylMpFPiHrGod4l0rVjfLSsONRjYtj6KdTDwkfL1o0sOvrP3PJiCfTjqCsqfvURMt4LF6ondP1pUNdqwoWPQF13U36gVr3jL3wA6v7mKeUnal6Tv3B11L2CaQ4fU33E9QPBsK+Nuj80NKdRTPUZd2ev+SvXRd2bddD9ncY21afcXb7KX7kq6t7GcHD0Sq1r3eMX8BVRl/qjELRmjHqpPuj6ejDhrlwPtVucRvd20t645euCYV8NtVvpxLd2vn1fP6Rx2S0/r/sfg/ppQEB/fbUDbzd+SIXaan0E6opGQD+/2nlcx7C92r51/oMR6rzNGfaVUC+YpnWb0s3guz9Pipoz7OugXpga0bQOsr9Q5dXa5IyxtDBI7+qo26P4rsbwb7au5/lMyg6s3eTUx0PUAVy/10Bd38SqNqaP7nxcPdhCto00Hljj5jG/0rLws0FbugbqbcOJQA/CmNia1HyUjXAq1/O27VWPLM8I9fi6qMlKdBpdqs27yboa8CrHTxF41XFTQn6HUXNUJHvUdXJLY1OH11vztRXYgo1jlfuirTx4+JXv4GL2qLedyD60qcyq52sfIxdVfqjWIPII9QEYduao64X4jp2/V8fyenORrXiSX0Gr87Cbk3dHqG2QGWSOeqs5xFPncTycKBacO/YPCDlX5kCOJaiuQ+RRDVgHyzFr1PVpHF46v+wwrASWv1YAb+53lqxyZCvIld+FutZ/XA81VfU3gMf2xnMF8rvx94OibmpXw6KNXmX2lTHqe3q/FxjJUaizVLbiouUZiCon/++x92eMejGIDeQf2Dz4bz+M5DLyu0kNRU+5fKrbrCiSMeouMZDi2PcwFC4eIuCIO0mOxUWuvBoIT4nkWqhLm/h2w3YYD0PnzAFHyxOHFVnlTfSYgitnpZxsUdeH0e1IC+4Bffuhd+a/ehTI1wqVz8c7K8hTI9evhXpBeBO81V6Kh/mIZ+8V2eTdukpUrjM6my3qGcnK+cre3bzmBcLyRLgP3k5B+tzmOCpXgzBj2VmijrMBY1CSXnoY+99t0a0g1metpaSsGaNmugZ9pcuj7sVm7fzT3ysovzv/oaAgeft7jQdOdE2vunaWqIlZO8923raU+eHDGjln0VZQEPLXLHrubGE1jjNF/UTDOf4zyFX4a/lNoauQ46HtWbuY5cVrT6f+ep0p6i2tNtlkxSEeN7mT3tia7KyD5MoRcn8/d10vumBT5fv5q6D+AnpuYTyUgCOejZyz6Mqj7ydee5SHuNVMUVdMETVR4sGqKZzzw15KyrAnj/9vR97GzVxcHvWKoP57IDoKBNxfK7kTDuS6xEEgv+bGADJE3Z2EsVlKVqzduCl/bD6ueopOP83Aaid7uxdDbayiWoItlp0wBfFlBoLi4R5lk3nu7ayM410JdTm+gOmqyECR4frK1OZhx/FsizzcnDe27FAX6CVEQSzJU+BAvlNFz+bEpyuPLkY/Y9QVWpTkLt/tfSlZQRpH2aRc6gurZaGBEBYy4ae2svN8xuCefwHnh2GpTxC51DcmjxeQ62s7Y13TKNP4l0xBcIZwEF1FVOpjVn5H3mCTxoxrCZ/IjIcgh20p8sNcmB/aYnUVR8919JQutWHak54HesaoF6TE53zDfZiqMqzgNEuIh1E2uW62qDXopKLaqooL4vKoaTfmWY9L1Aof5z5Mdp6Kgli+R/9ByOJenKC8POr2FHTrYiViHqdwzq09duW2QEHo/xNVu9KcWQYZGKmnOp1Xyvr0/MHyVYG8uQ/9ioKC5AOSMk6CK6Cmd3N+cX8Jq3ysqq6GqY0EW6/Gb5WsOhPURbocv+hSZovioULjWOWCJ9cD8r614okuj7pNl+P0B/r6Bbqq40heU1GQOeZOzD7IUrxTMMEsak9kORqDx6iUJFktchU1uYcAw7bux8/l+nlZsqzzaVo4ftOaj0PnLFVXq3uu1LeGBQ/vhH1kU1NdxXbNRk4f9rWqotuIogotaD/UIGjqP1qeAnQmqItxRQTRPtABi+Mh/9dDuopYn7v34GUKOunU+AVQPw7J/Qx+QgtRENwllVKbQ63GRT+bjk2ybBGF+0zrfLk6NWyjfC++2Bz7luAVdMHm2YAFY026Pcm6m7SiqEf/pXj5blLDu3fEDi8VOjjE4ouu+5n3wKhha9pP3RrP5boTYv54ikEVyJmmXQYaM+2sUfcGNKg/hwvOVzR4c1FXQBA9YKPANer0wuieNWp3Ru7m/PES9knztqeIh7znCMVj9WrgCi3878w70n1mIrRuFtYoIXB34ku5mMdaAxPyoq5b86ug7o2oiXxlM09hpZeo/G7tSVHP9hmzWlP3YcfkL/uZBcZWw1Y6RHbA3cYWrkiKaZVdY8t2zhy4HyfN2c+HVDrURL7lOVcRlfo8uR1qW2CqYkINPtiRhZw9ahYetX/+WZXqpbLH0+0qqENMDtQ8mPfJHnVpRk1Ee8KjIJZiLgEq2oNjchS07l1zFgeMEMVVyhZKycXZOKBoHxZ8mgw0vHwF1DQ1QLnBIr4me2eCmUvKKKMOrj/J3CXznprRxf9215aS3yNvzO96IC5P9661G6Le65FBuMcBu2m7td8phigig15zwb7lx52zgy+yl4xQt4vbRZu0odsFelPzv6tiOkAU7dX4jB2Bjlq6nsxcMkBd6lVmsz6cOKzQm6L4qIKMuYlQdZ140RcSiC9kgbq07K8K5WKbuwhMpPMiq1q3PTa8F8s6mitD8UY1c3tZ1PWn2bBRfpQmFMp0PXKzZjFmS5rWb8XMVLD0LFCXlpVCwyg8SZlWLvc/DHXnVdTzWsoUHiJUga+qTV0U9bK40cxOoSgrB6WH9h+Ui3B93jyirNL73TU2aeQ5jmG+GOr2bNgxzca2Lr+0xm39Lww14auYj9REc8ayC5OH6qkdB5dAXX8qmKZhDLqybTRruLabt1+ZsrUvsduwFGMXOGriRK2qHB+/IOpepYCIhmEWFtIinO9I4UJ/Zsp+jiZnx6rEt4XrqUFV0cO5KOrebGAYjmMMn0TM7rzKLNj+1WHr8SXw1upNBHuU1CB7Prtx6X2o25WhgT5gGIWF+NJ8Bwu/tv6VKfvfNfU6e0AWHVSVDvpyqN1ld2TitxvDirAK3b2YvdpsPRrDpRJzzbOtXZJdP+9BfV8chfvRkHWIFn1Xk8iG/Rdl2eo9dxML2U3STW1vRV1CfiPardhZ8eEbYfaobwPgvzFlS/sb3UnVq45zieWNqNvdQbzDstEVrGNfjbnar2/ffuokadGD/6WFEWcg7CVt1qrKgb8Lo14MTDIV2edfefBJGv7LQfLHz0jdQXVeZ3yVP/WhNU6j5jejdrtkg6U5EHaT7OlghB5ahKM9v9h2EC4yVmIwpsBEmntVC+/iqBdTkzQACrx1zKvU2dkkrjjO1/+LXqV72JB00+J8L2q2KZQ7jgnJmGtN0NXnNGahal2QPw4VhCVD1PVug4DWyvwOKZ9LYe3XrwZpkRqDGXbRLDlwOul2pL8TdX3VIH/YKHP+q1m1I6G3e/m3ZpB2ozaq9EA9B9mWPNucGep6WaOv83vR8ATE67evz78QmQtvZgf+vF8YkLkWwxgV232qbFYZyR71/cqgbqDAeY/xIbRkx+l8e8GwY95W344MBnSznRrHb54V6vsNAA3NI0zzIg7tYF+HcidSq6sXR3SMyNAa7OYjRaKWCeoKA80Hl7BGZP8VMX+k77+DLVuIy2omuCkRM92pBW9GzUBrJtzd4NaI0yBKNQcViKm9GpgiaM3YXAX1skNfMleQNNSI2/hi0u/CGEHX5i7LpukIqN/jsk+gNrgA1hsecVtsXN5+eaZPZpgDrvy02DQEMzHe4bItHnWOuVSkUfC+0opedxrQfUwg/X/9z5TasNEow/chd8Kbt6JFnVjgTAOeHukCXUOWsTBYXIOWM4ly8OgGwdqtbyluw+xwGXC9z9yg9i6X7YIorONMfwtQD9mSam8M5cO4lv7r+fnnaxgSD7i+VVrOCI1FLm/YhdlWbzUEuN9uInM48I9Zbo+ZH7QEsuMvnAUCn9+h5BvFlq9fEG6L+OjH2cCgIXHYhe6k1x1cwETAzhM9mhUGFXKHOuX2iP2tGfAfc9sOCanTef51YIl3vV/QKO7GaAvQlRZsYmT4VpddA6qO+jWABBsVYpUVdm0EvvIHS7e/xk9ozhbAckrbAqNZZuEJvNSlSum8NaqDqZz4EBfarQeJEkye4OFzyFPblEabER0l0t4OgDvZMLNaMgq1eRvx48Y+oxH4YkfOpVkH3wCnyYatYhYREW6tDHGXttS8HdOkdZ4S1YsxUBZGzgrYL0OO+VmwGQONsI0CMBrw6VoUyJ8dk4Lj6zm9WYeGcnNAluWW6UBIlRPKHizGeJgLtH6cRhQdl5SqcZWMuCtv5//6RnkGColcpaG3GgDKFWViS7YeZ2+K6j+AgcSnL9zPANOJdoywtWh2gSXu6LjHn/2RSX2GNoLUqtQvmCwTG1VcboKr8CYvAsw6jOdIXBhnpthnAW4ygBUBGlYtF5eiGAXRRkXoTvrlBmMn022bmYhUTUkkLUAhdDLGsGDLMYozrCJgjAAavDUyDImhaZVQ/CBxz3EGMxiK2hXGTrRBebEkN0x7DFskEzisQZq+PRa9kEW4MLWGaxEfZ6S/4joTedw2jHuN2RJSkO2QvoLYCf2HNnuD7wMz2LpNQl4Jxhns6NjMAeQ7TSvMbn++shP/kC0wHx1m5UweV0PKTiBBSx/U56DqorPzlFbAY2PDo4OEJtTMONCfTUxB/gNLOYvZwCFGK2Q0yxlTMb3/MD3vg5PBOpudA53Y0PfRxWhCK/TjDpGjbeBfLj0xWocymj54ztIjYqpiRpM+qIMTbHVwfguI3+h7zuWGNGbDUBaQvhbiGbMFzMgqBRbKzQLEnXvaQIYdfn1pQcNwrn9n10tb5rEdbZkja8xoACNs2ayv5aC0BdpCHVKQDpfRlJ4GXEYjnEuUQDhuvQMvLJlhY95HulcG1AueK375w6G4tRXEfd+l8c8xjA10J6XKSIMRISUVcbkpbDghVYdeZFNXmjUm5voLrjYRcCNIQdzFrMF8Bp/RLLtD9mWKBfBz8gA9CHe2Wa4Lld2nIQGuunBjgq2//IPFPQPHPSolLqMZVMBL7rI7IA/bSBkda7Bwyx+Q2AeBxhjFFmLAcE43sv+oTIljQOa9gdnt/dOUZTQdbpahRPoGaTMDbi3a/DQU50WU4ZwEKPTBerFAK3lmgwNXf6JVEMfUCmA2gA44O+mcyB46a4sfKwFVfYCez83jx0VE0e2BrNwYcI28NmAnBkh2yCEuKQtnLsgYxRM00U0HhowaHrL+EH9T8V6nHrBhs9PtgXe2u0Naw8bJTrSA7um+tlTldy6aB+L4QGmmKCfCUtRdXLM6xF9SabExWJWPcydoWXZYJjaNkgb6B5xRGofNrUVLenkhK5sr+91ZeJOlboMDQx8LbAmYgyKkRcsyeKkRPtL2LahdTtXyeMn9RlI2RxkQahtTvr+Ba6UipCAFzqUtRqyoao6KpVyfbJ9OUxThiJOnGBQonkONZydQiClACnL/VGBrD2Vi4KVSf8P0rU2LBLWWAnWTG24VT03HUj+NOlfF8RzzlAEM5W6vAnhGQ85oKFOfdtKjHsONpIFyJmN1GrWff+nEtjBcQZ/R6w4Bw17B2b52ZdRhX0V61FDVtuj24r8+NE6j/usPFvc4n7GYaawxMOpyUV7udSRHDc/wyR+OnMC6Oom6lte/0O2tuJkIXcFTGfYZuXG5R/ZS9NmpMF1yVFrc9mj/yGAGLELJqNfI732hTDVsDMDstjJla6+zWUAKsh11QEaT3PPtYVi0j85mzLQTqOfIWdv6T8awTQQOPD9iJyy0IHcCGXYfZDSJY+MDt6e7enQGps9HGh71XdhitP+c0V65Yw66AgVh7CQeWyCPVGGkcpNsBsddJ1N17n52AnXY0MGF+uVsAOIe1xior4ZM38aqBz07ORBFW+USCXdqiH7MqrEsOWUbXJMxbJ7pQS6kICzuGUP4bO5yZrAi33AFzPspQp24+sRtjw6Oz93mQFk/BMT/sA5OwYinh3HPHDxxPmOjzGgIezISZmBjbt/m7uR7lyOYHYw4H7UPbLYrrr5l1QSnsenDzKDIWJXTKMSs6p6cgTdN5K6bnNdTh0UqpS1nIlyv151wR8DVi3SKAq09vs/4RLNy5Gmm4SO1B+QLTFQy23FjPioGAoUPkI1TVQAX9hkdoc/YHcKMBnl20jMxE41tceezyNmAJEW4IM8VyR9nLG3B1QSg7+VqSuvbiJ0sZmTxJjFrzj5UvFqUOkxqnHNuqrQoQDpagaFlWe6w2DKMKwvJumA+N/RqnVU1OJUilM7ZEmh/AxoDPAVZzGhsMdLUFfiTToRywhFZQZImjh0qpL5tmJCCgJfui0NhKifJAIDLn3QiZ4tKFND78SXsY7Jlc3tI31y9dcGNWxjlBNSJK+zxGwZPyAJO0TiJBg2WXaZvk0t2UGbAkh3xmFWl7DmjPkFABAG9AxzMEv1UE/Z1NLvtcK3qeoVVcM47a25oJm9Xz36AIphysea8aWNB7oRRkM6QG1uImw9OI4ECOKPWj2UwKulz+UHShmxpUW7QuqU5ZUVVUvs0zq+RFn9mSHL7yOFTB6CNkD71eUHsBE5OxqyqvYkvJSgCr3mnd2bvjyDtAmcjRuIfa7qvDMHkZMhO3Fn8BRjds6rec6DFGupZeeKZtnrriFJw0gB6Br1SMY7s5vmEcc4fapfKPkKpdABq5M1SlLmWK9DXbZTj5zfO36Ip7KP+ce4DktT5IqsxS9OTfQQTDcQ8zjcahdOddCvNJg8CmzNtzUzm/yjucof7uHN+Y4Fb5Y+dCd4AWqoNG6tUsEtFMLaALPz8d8UnAuzUuHTiFjUI2+mkMpJoAxYDffaR+U0KefHn+RJLacY1wZ1GJd2UhEv6gY65ObsS18I+suNVmwSwORvRVqm03Y8zAZRbnNX0jgetV1N6aih1ocw62KbQdi9ezoZWPluPHAuaDlLQD1m4SgMm/clHaR5jCmYodyRz4oqaFs+GSCv9hsbDPh+VI4kdJ8rQi+c+4daEAy/Sx0RRtgMOtmMq9kUrQZuR4xmdzcklTdvnyh8JpGII4SKJA6xHJxYYZgInL7g8Xa+92X0A2fLRxjHP//BlO9S0YZxXNO4I6hfXdA5vXxOGgIRdSrKEFWWDzamekKZw0o9Oz5x8r9x3NaH1Ie9Fh9Iuo/cb/JjzEdmLJxcf6XS9ReoroaphDE8k7vUZTsCGxQS0ZS3sBkchMUGdKamUusLeF6OzOvbt1/Ev7A7FbdQqaQp8CZ9WdUHQoaXyRuJoBbUB3Hc7pqY4gUGWuXh4lZ6vnmwJvEG6QlsPb/1SQCvN0GI9afWxuGvpfFj7VPPlbVJfCZ4ErbeK7LmLjU6SVZhr1USTRpp+B2M6KluxY62ZQ7FUsDLLifLivXy+64X8tCRPHbElbghW8tRQnZEji6Ro5KdVp1NeRB4LorY1EzRxS/1E1ModHyRF6967qOlpWRbETYtwfK7USwIaHo1CFX1Idh7HG6W+0gTHnXLstCke0J0XDxXMQup8vDGmqeY3m2vFAYPCAX3ZyGLKWEk60A/Rb7GIEhw5TuuysqR10wR5CpPW2LJVh/R5705ckgmeTIhAJ+oiYHHnNUt5Rt81rCMWPL/u4MqdpGlXTY7vageVbei6nZmXVkkbxXe53OiOA9taiwzoYV1VWUZ4dtzVFB3J/XYglRuRJ8bH+RzgIczu2pd+vpEoOqhdKG15hzR9YrgIeviTr/j8fDXi0KLTdS+ykbHHn5EfVH35NGDwhkD1G7zXxixHD+WPgpCXDqqzJa8sDzv1MZ7HMNtnj4jLXlpyznoKc962rhRXTkpTHT+O6Vk8RfXDhPu9kjN6fmsLIANBvCiRvhWne36s7H05Q+EVffAzzFfeLM21d+QXH7AT9H58EnOWxJ34h0BCfuzHDz+PuPOxH5p4HNvD6L4bqw5R/WTi4p93DV24bR8s6RTjTysu/p12L/yxnrvfBXMsrYePp0c3uclNbnKTm9zkJje5yU1ucpOb3OQmN/lI+X9TLTj6tKPEfQAAAABJRU5ErkJggg==;" vertex="1" parent="6">
                    <mxGeometry x="20" y="55" width="42.32" height="65" as="geometry"/>
                </mxCell>
                <mxCell id="9" value="Github Diode" style="shadow=0;dashed=0;html=1;labelPosition=center;verticalLabelPosition=bottom;verticalAlign=top;align=center;outlineConnect=0;shape=mxgraph.veeam.3d.proxy_appliance;" vertex="1" parent="6">
                    <mxGeometry x="130" y="64.5" width="46" height="46" as="geometry"/>
                </mxCell>
                <mxCell id="11" style="edgeStyle=none;html=1;" edge="1" parent="1" source="9" target="2">
                    <mxGeometry relative="1" as="geometry"/>
                </mxCell>
                <mxCell id="12" value="URLScan Regex" style="shape=image;verticalLabelPosition=bottom;labelBackgroundColor=default;verticalAlign=top;aspect=fixed;imageAspect=0;image=data:image/png,iVBORw0KGgoAAAANSUhEUgAAAOEAAADhCAMAAAAJbSJIAAABHVBMVEX////iWkXk6Os8Y30pRlm1SDedsb4lSF2yRzbiV0HgSzHhTzfhVD3iWUPgSjDhUju7SDXk7vIWRlvVVUHr7vE2X3otWnaAR0Y9ZX+yOiT65+Xk8PQmSV7eWkXzwrz88O7xt7D32dXrlInkaVcANk9Xd43FTjxBSFezPCf54+D1zsnsm5HognTmc2Pkz8/k4OITPlXwsqrnemvW3ODtopjMn5vogHLqjoLvqqHla1njp6Hjn5jjkonjtrLk09PjvruyvMPEzNFyjZ+Tqbd+l6jXwL82R1hGRlSrSDp2h5RLZHQ+W21ne4hWbXytuL9igJTLiYG/ZlrHQirQravAeG/JlpG7aV4pNkicp6+5WUucUU5aSlWNR0NuR0yaRz+4ZGIyAAAPCElEQVR4nO2de0PayBrGCxohmVxAgQVBQEEWQQSh3pWqte1au9Kubbc93bPf/2OcCcglk7klMwm0h+ePVne15ud7m3dmMvPixVJLLbXUUksttdRSSy211FKLo9Lm3naxWCyXD8vlYrGxvVma9xNJ02bjsHm8BYCmASgLyv5bg5/qrZOXxe2fmnSvuNPSTWDpqmFE3DJUHdJqlf3Txs+IuXd4bEIzqTg0FNQC5lbzp6IsFU8imqUy2WYxdQBap9vzfnIulcpdE+hs07mlWpraXHjIYlcDnoyHmlKLvNybNwRZ2ztABO8Z0jLPyosZk8WK5ss53VIBaG7OG8elQ13cfFMZurm/WBF5CoAc802laq3FYTy1LNl8Q0azuxiMh1ogfM+M84/HRkW6fzoYteZ8+Ta7psT8gpWllecIeKgFzQdlgNa8XHUvWAedSjVP5wJ4GriDTgXOwjdjqQVC44vYGaccMmAxjAiclaEdhzpY3THDicBZ6Wp49b9UsULngzLMw5AAGzLH2J6knYQCWJ6Dh45lnYUQjE1tbnxQaiTwsnEcapHAIGoB55vuXHLMrAyzESRga+6ANmIxML5SRZ83nq0AERcDECooxDMvgIaq67q9DgP/4pja94oYSCxyx6A9Qw/U7uXlxcX5+UXz8uTMAsCSimloASAecwFCOq1yeXXQzueTE+WT7YPzfa9LGfSfY0ovGk2eOqgCfeeqDZmiLsH/1j8/BtIgDUvy6KbMHskYuta9iuLoJpT59nlFVtulVqQCNkwmn6Vftml4Y1MedIGclKx3JQJuMidkdHDRZuKNlD/Yl2NHIHGicYvxRCq45OUbMvZbUuaw5JXFE3oaNUCrn+fnGzrrlS5h/GeYkhqNQ3qWUa0rj3w2YvRSEzejuiUFcI+eZaxK34ODTpV/JaFyWFKafnoQape++GwztiV0KpqEUNyhPYZh+vDQKeOlcDttAOHCT62EBnjl14JD5S+YdZYltSVKSBswq9aBECBEPBee9QFlMcAmxUdVw1+OcSBeiVpR0E+3KT/fABTAVCoV7fVuoHq94SdkRFEr6vsihBVyHjVMooumUr3H+/eF6kidhz/vr6NEyPyFKKJIr1im5DqNkGRSqZv7QrXTic2o06k+fOsRGPOiGdWI+Cek7AACF9gykUo9vq866KaUH27wjMmuYLMBfK9nvCSnGb2LB3wsVHF4I8bqn3jGtuAMh+9uuEROM4bRxvHdvCfzDVW9x/lq8pVgKFo++6gdsvOYb3BBeI/wFWyhvvqIQcxfCo7fTF9G3CT/YvUTt4+meg+dGbZMOr0yVHYlnc7McFbvcY5KSdo80nf8EJ4QTWgYOA+d8EG6FUQQcwLZecD46YFg4dd8dIqb5J8Jrlw+mroee2jBhTfW2JKdgjsY8/ti+dSPEclRqJ65AR+rY75slkS4MjHkes9lxbZgUfQeiZRE6m4oxhaEfGOWdBpny2zm+RfhQsxfihnRezol10K15TLhcwxmVrJjvt3B7e1gBQdZIMSioBENyysheUclpicsOAMwPVgb6S7rZhyZsfMBDcWkoBG9dlFF4m/UqLh89INtwsKEL/t6baIBxozpYdH4hiL2xYzodVaqRaxP1jlCOMoyhamR1mZ1i0O0bd5BQzHfFauJ3hb4aaWij/pozAGYfu0gXNvFxKIdjC4/TV6JGdFbwaDlGWQ4k7rvOAAHTsC11xgjZldsP71GEEVzDfBCiH3XbChXte9VZwFdJoRGxGVUOxYfUCPui7kp8DCz2CAPSQHSVAxNmJ5W+SwKiI1EOMBxGzH5SjDXeJh2o4xn0GLYswFnbLPrIrzDEmZhKL6X66YRjX9cQy6GetNJmPrWiRVmxmmuMMQH4ijbVG+chHnBDoO/JDbIv0vwCnHSh1jM8dxuG5II07HOHeKmgkVf5V4zbZJ/EBqGN1U4VnN4H6eXDv30QW4g8g+/t4hOamw5awV00oLzud25dIAHtI2IumlfcDaDN5tSmnt1HwnDPzsZ5LFvUUISIIzEDjp0E3y/iLfolylTbEiiiSJRaCOiJiR2xNk0Oq5JnomlGoNzbHpM/jEWUu971YzrwZ25hhSFQ8RYASEUrPkRje8NW8qUCZJKYefrBnCURBogLPtVp0ckL0Tnhss8gHuUcAcHaKLBzFmks3fjQjFwm9jxlUiqSZ4LzirqXKve5NYQeoGzsUjdF/BPnh3cvb673cXOZMyqI5nQMHgIKRPBEa2NEGYI807pNGGmxqmYc2gq2kBxVkTa0AmghGwIqjLOGXDhkh8BPCtttB9iySZECqIwocWxDEVLNG4vlWxDYS9VOVINLdG4COnFgIPw2plprkR32KhnbELKoqE7l5L6Bm5CybmUayqDOqxA6+E1vd6xCXuSCXlGNRXa4BedDb4RJZTbIEa4kil156d1hIxLBQl3EULKkJiXsMwCLFFbNP0j0j1hZ0O5lX6NdE814R2Z1ksWIbVYRNRPCKFYMkVSaTT6lzAhu1xQ5migjATSH4qlGiTRRPt/iQJyTClSy2EkkkPn9EUI0wMkDJ/ECdlNMKXBt1V/kuimGXRK+HNNnJC5jnhKJTQSnxE3FakXGcQfooo4YYRZ8ikzibYSfyAPJZBNXZm0n5NByOqfaN2hTYgGosCwBs0zyaN6GIQn9Jpbq39BF0gxK9l8JrxD156+KxvihMydNYzZrpoSRwn9GjGNRmE/F18EwnjuDRqJ5BlRmjJrqAm/1KUQsobejJHhRjzxEd2p4Gtwmt51bcb4Q1G2QiBk2HArruTQjZepRx+IaJqJJt/kFEUcUJgwEldcuSaauvWMiBb7YZ5REjIIWXHIyKWRhKLU3btnsWv1NEC0FEaj0IRxCcWCTciohzCZKvUj9/ZZbyUjgxYKaMKvCUVGomHXQ8aYBqYarBF7XhAzty7A1PXfcSUuAZBNSB+XQikwXFzp1HZU7ljEWDCaWo39LsVJ2eNSRm8xDETFVROj/Okm7SqE9jffdVZjb8U7fJ7egtEfjtxU+Y4xYmrNvfsZY8As7o2EXmd1dTX2LiKOyO4P6T2+LZvQXTFsxB5jMc024J37++wdHaurQ0TyDgJesXt8+jyNLZhNbT/FvY6Qus7SGNOZXewrJan7zuoI8XdhK7LnaehzbbaGbqokcK+URFPRtSzJV0l89kry6rPEHZU910afLx1KGRJ+Jb3Y9TjIuCHTmfQt4bWnURCuSrIixzo3dc57qJER6+h8xpSxt3abgZTDJVL4B/w4e3cdJb6D+LA6I1Ercsx5c2yHGBpRyeGyzRgy1bt+fTsY7O4OBndrNz3aO5YOQGErcqxbUNeeRhoZUckd0d7jTk1F+Sp7z9EqiiiSUTnWnpgFMTI2IkQUfg84+gEFFEPkOdOFXS4mRqQ5KqfeuwGFEHnWgKnr+GPVxoi4ESq37NfdMIAiiDzr+NS9GBM9+6lS/xr1zZi6weIJIXLtxWB1iEON/VRJKH5PHUh9qxIJfSNy7afhSTVTP/Wbb5LRDxRAv4h8e6J4Ug38t5SJcl+9HDA0Uv6N8ts6jdAfIt++thecG3WniIncF2/RmOx/zSkJFuJb74icm4Q5N3luxaeMdeWJfc7XhK/9JWf30UxE71bk3F9KO0lhVhsziEo9/sRnR5uv/mx72Yi8e4Qp+7wpiNCOR8wD25LJ/sd6YurekhG5X+7i/mediEo99/WpnSdBJpP5/tH3XGL2OyQjcr/5xFURcYhKol7/9OVNNIkcnWh/3n7z8fvYPYNC5H7fgj1XM9EW+sgQMlf/9PHoqd9vR5P5fKrd7h88ffkM6RKur5WM6OHVLi9HqSXiuOeu13O5er0++gB+hKXjQ+QvGlaZm5DfTSOzoxt/kmdFD++ubXt6O2fDD1fcQ0bltCL/i10vaO+QYuXdjPHaTJaSZEUv75BSj/jCaUPxxBiv2Yu9HhC5rOjBSZlnJYoxxhPPq2hyETlH3WOR38cXZIxP+GQjejxwn69JRBlrcQZkXKk5NiNIRPR80qfPi/4okPB/1FyLvPLSjefTBZkrpRRImybuhIsriRp2K4kHxHe0yDF0j4AcKzQ0bW3UarXnipeo1TY2yBtl+BHX/0NB5FiRQeVpXMMQ1b08WJGyocjHaV+Uwz8kixuRYkRfh32Rz/qaF2LsB5HQU7WfGDG8K3N4EddJhP7OawvRiLyI66QtRf7O3KMd9zUnxHXCfhS/5ybyLCWGi0iwoaH7PmjXYxMVOCIhDgUOS/Y1Og0OkZBLhc6eFzzFQTLi+r9YnxK6c4ZvlSY0ROx3iZ0F7bnZDxJx/TecRwmfOx9msqEjxt4lcKlU9Ex2jhtmQkJcf6fgXosSP1effjdCoIj/rMdmAH/YzZjryyXcjcC+ZCY4xD9+rI8gY+tv/7EB3dukZdxv4WPeTRYiZPztx9u3b9/999/EsJ2Oow2iYB4d6zTkaytnF7QSIz1/htqQb2MCh/ZDvtcRXbObCvlCk29Rm0MhhyIREcmlEq9BZN/ZFQoi8saJzDu7wq6KJETH71nqvWtcd+cFjug0oeS782A3HPY9wC5E5ys1qir9duewEyqK6AQ05KXRqUK/7HhrdjHL6aJGMDc7e7pLVopqz+sf8Tiy6BHUvc7h3wds2OsfNdeS1a9+5XGQ11b/8vdyv/g/uFsdFo2w6yIiNZgsOqtm2KMbJ2BE0tWjNJXNkIfhM7LOpI9kcGqAkJupiTQ5LT1bpcpc8o1h+r5fzbtOJFx161WqFXiOmVVZ1gXivDJAN5QQnGrzLNSyoWoheuhYp2Z4ZgRnIRQJt/bOQpq+Uc3TefDZOgwjGg2tOxcDjlQ6DtxVLU9bfwNQoxKoq6qazClDnyprgnc2UPjM4zk66IxegkAYVa0bao2nqRQAo6q1FoZvqENd5njc0M39xeKzVaxoPrdOo1IBaC5G/KHa3tHEDQnNVymHPAT1omJLswQgDV2LNBfPPZ0qlbsm8OWuqqWpC483Uql4EvFoSkMHoHX6c+A9a++wa2pA57hT3FAtYEZ2Ggsce0TtFXdaqgksyIkDNVTdAppW2T/9Kekm2myUm/tbAKIAKAvK/luDn+qtndPi9k8NN6vS5t52o1gslw/L5WKxsb35y5AttdRSSy211FJLLbXUUkv9GvofZE77rCt+b60AAAAASUVORK5CYII=;" vertex="1" parent="1">
                    <mxGeometry x="540" y="285" width="70" height="70" as="geometry"/>
                </mxCell>
                <mxCell id="MVKK8W84-2XBFiwn59CM-13" style="edgeStyle=none;html=1;" edge="1" parent="1" source="9" target="4">
                    <mxGeometry relative="1" as="geometry"/>
                </mxCell>
            </root>
        </mxGraphModel>
    </diagram>
</mxfile>